<svg xmlns="http://www.w3.org/2000/svg" xmlns:xlink="http://www.w3.org/1999/xlink" width="10" height="18" viewBox="0 0 10 18"><defs><path id="c50ka" d="M115.623 6284.004l-2.398-.004c-2.695 0-4.436 1.739-4.436 4.43v2.042h-2.412a.372.372 0 0 0-.377.367v2.96c0 .203.169.367.377.367h2.412v7.467c0 .203.169.367.377.367h3.146a.372.372 0 0 0 .378-.367v-7.467h2.82a.372.372 0 0 0 .376-.367l.002-2.96c0-.097-.04-.19-.11-.26a.383.383 0 0 0-.268-.107h-2.82v-1.731c0-.832.203-1.255 1.317-1.255h1.616a.372.372 0 0 0 .377-.367v-2.748a.372.372 0 0 0-.377-.367z"/></defs><g><g transform="translate(-106 -6284)"><g/><g><use fill="#9e9e9e" xlink:href="#c50ka"/></g></g></g></svg>