<?xml version="1.0" encoding="UTF-8"?>
<svg width="9px" height="17px" viewBox="0 0 9 17" version="1.1" xmlns="http://www.w3.org/2000/svg" xmlns:xlink="http://www.w3.org/1999/xlink">
    <!-- Generator: Sketch 54.1 (76490) - https://sketchapp.com -->
    <title>Shape</title>
    <desc>Created with Sketch.</desc>
    <g id="Page-1" stroke="none" stroke-width="1" fill="none" fill-rule="evenodd">
        <g id="Mod—HKT-3" transform="translate(-1207.000000, -7384.000000)" fill="#FFF900" fill-rule="nonzero">
            <g id="Redes-Sociais" transform="translate(104.000000, 6764.000000)">
                <path d="M1111.66109,620.003537 L1109.5024,620 C1107.07718,620 1105.5099,621.642115 1105.5099,624.183723 L1105.5099,626.112699 L1103.33943,626.112699 C1103.15188,626.112699 1103,626.26798 1103,626.459515 L1103,629.254382 C1103,629.445918 1103.15205,629.601022 1103.33943,629.601022 L1105.5099,629.601022 L1105.5099,636.653361 C1105.5099,636.844897 1105.66178,637 1105.84933,637 L1108.68118,637 C1108.86873,637 1109.02061,636.84472 1109.02061,636.653361 L1109.02061,629.601022 L1111.55839,629.601022 C1111.74594,629.601022 1111.89782,629.445918 1111.89782,629.254382 L1111.89886,626.459515 C1111.89886,626.36755 1111.86301,626.279475 1111.79946,626.214392 C1111.7359,626.149309 1111.64931,626.112699 1111.55926,626.112699 L1109.02061,626.112699 L1109.02061,624.477482 C1109.02061,623.691531 1109.20401,623.292542 1110.20655,623.292542 L1111.66074,623.292011 C1111.84812,623.292011 1112,623.136731 1112,622.945372 L1112,620.350176 C1112,620.158994 1111.84829,620.003891 1111.66109,620.003537 Z" id="Shape"></path>
            </g>
        </g>
    </g>
</svg>