<?xml version="1.0" encoding="UTF-8"?>
<svg width="151px" height="45px" viewBox="0 0 151 45" version="1.1" xmlns="http://www.w3.org/2000/svg" xmlns:xlink="http://www.w3.org/1999/xlink">
    <!-- Generator: Sketch 54.1 (76490) - https://sketchapp.com -->
    <title>Logo</title>
    <desc>Created with Sketch.</desc>
    <defs>
        <polygon id="path-1" points="0 0.239469723 44.0408873 0.239469723 44.0408873 44.6590909 0 44.6590909"></polygon>
    </defs>
    <g id="Page-1" stroke="none" stroke-width="1" fill="none" fill-rule="evenodd">
        <g id="Mod—HKT-2" transform="translate(-96.000000, -90.000000)">
            <g id="Mod—Hero-2">
                <g id="header">
                    <g id="Logo" transform="translate(96.000000, 90.000000)">
                        <g id="Group-3">
                            <mask id="mask-2" fill="white">
                                <use xlink:href="#path-1"></use>
                            </mask>
                            <g id="Clip-2"></g>
                            <path d="M36.7086722,0.351034091 L4.94188657,6.17376136 C2.22388027,6.65307955 -6.95854147e-05,9.26785227 -6.95854147e-05,12.418875 L-6.95854147e-05,32.0937614 C-6.95854147e-05,35.3225114 2.220401,37.8800114 4.93492803,38.3848977 L36.71911,44.5420568 C40.7460179,45.291375 44.0408873,42.3585341 44.0408873,38.1530795 L44.0408873,7.03046591 C44.0408873,2.38557955 40.7414949,-0.360443182 36.7086722,0.351034091" id="Fill-1" fill="#DDDDDD" mask="url(#mask-2)"></path>
                        </g>
                        <path d="M49.6434272,22.9998257 C49.6434272,25.3690135 50.8570594,26.9129081 52.844712,26.9129081 C54.1689702,26.9129081 55.1906338,26.3794486 56.0196057,24.8892486 L59,26.30065 C57.8413193,28.8295271 55.5221502,30 52.7630079,30 C48.8144554,30 46,27.09805 46,22.9998257 C46,18.8995094 48.8144554,16 52.7630079,16 C55.5221502,16 57.8413193,17.1704729 59,19.69935 L56.0196057,21.1107514 C55.1906338,19.6181107 54.1689702,19.0870919 52.844712,19.0870919 C50.8570594,19.0870919 49.6434272,20.6309865 49.6434272,22.9998257" id="Fill-4" fill="#000000"></path>
                        <path d="M70.4386957,22.9998257 C70.4386957,20.6843324 69.1444147,19.0870919 66.9858664,19.0870919 C64.8552319,19.0870919 63.560951,20.6843324 63.560951,22.9998257 C63.560951,25.3435609 64.8552319,26.9129081 66.9858664,26.9129081 C69.1444147,26.9129081 70.4386957,25.3435609 70.4386957,22.9998257 M74,22.9998257 C74,27.0725973 71.1411337,30 66.9858664,30 C62.8327192,30 60,27.0725973 60,22.9998257 C60,18.953204 62.8327192,16 66.9858664,16 C71.1411337,16 74,18.953204 74,22.9998257" id="Fill-6" fill="#000000"></path>
                        <path d="M78.4482759,20.4463397 L78.4482759,30 L75,30 L75,16.3539055 L77.8107357,16.3539055 L78.0508121,17.6633557 C79.1896986,16.598422 80.730218,16 82.2686528,16 C84.3105185,16 85.4514896,16.7625054 86.0612351,17.9364706 C87.2275688,16.6817149 88.8997655,16 90.5441675,16 C94.4430644,16 95,18.8087225 95,21.6485458 L95,30 L91.5513767,30 L91.5513767,21.5395143 C91.5513767,19.6548783 91.0201511,19.1368894 89.7221402,19.1368894 C88.633979,19.1368894 87.4933553,19.6831193 86.6987753,20.5006767 C86.7241379,20.883538 86.7241379,21.2660419 86.7241379,21.6485458 L86.7241379,30 L83.2758621,30 L83.2758621,21.5395143 C83.2758621,19.6548783 82.7442891,19.1368894 81.4462781,19.1368894 C80.3584643,19.1368894 79.2706506,19.6831193 78.4482759,20.4463397" id="Fill-8" fill="#000000"></path>
                        <path d="M107.288638,22.8799238 C107.288638,20.5516611 105.966702,19.0342123 103.971647,19.0342123 C101.807575,19.0342123 100.654655,20.5516611 100.654655,22.8799238 C100.654655,25.2085293 101.807575,26.7259781 103.971647,26.7259781 C105.966702,26.7259781 107.288638,25.2085293 107.288638,22.8799238 M100.654655,28.3750214 L100.654655,34 L97,34 L97,16.339267 L99.9789584,16.339267 L100.260652,17.8293003 C101.300894,16.7313089 102.706049,16 104.392898,16 C108.21657,16 111,18.8772584 111,22.8799238 C111,26.8575726 108.21657,29.7601904 104.392898,29.7601904 C102.904524,29.7601904 101.638927,29.2386102 100.654655,28.3750214" id="Fill-10" fill="#000000"></path>
                        <path d="M116.993269,29 C114.480831,29 113,27.8017168 113,25.1202111 L113,11 L116.630743,11 L116.630743,24.4045186 C116.630743,25.4516369 117.049239,25.8606518 118,25.8606518 L118,28.9488313 C117.720515,28.9755862 117.384694,29 116.993269,29" id="Fill-12" fill="#000000"></path>
                        <path d="M120.414124,29 L123.585557,29 L123.585557,16.0933891 L120.414124,16.0933891 L120.414124,29 Z M121.999041,10 C123.122544,10 124,10.9551562 124,12.1442833 C124,13.2793131 123.122544,14.2344693 121.999041,14.2344693 C120.9027,14.2344693 120,13.2793131 120,12.1442833 C120,10.9551562 120.9027,10 121.999041,10 L121.999041,10 Z" id="Fill-14" fill="#000000"></path>
                        <path d="M129.643529,22.9998257 C129.643529,25.3690135 130.857195,26.9129081 132.844902,26.9129081 C134.169197,26.9129081 135.190889,26.3794486 136.019884,24.8892486 L139,26.30065 C137.841649,28.8295271 135.522415,30 132.763196,30 C128.814534,30 126,27.09805 126,22.9998257 C126,18.8995094 128.814534,16 132.763196,16 C135.522415,16 137.841649,17.1704729 139,19.69935 L136.019884,21.1107514 C135.190889,19.6181107 134.169197,19.0870919 132.844902,19.0870919 C130.857195,19.0870919 129.643529,20.6309865 129.643529,22.9998257" id="Fill-16" fill="#000000"></path>
                        <path d="M142.600143,25.5097557 C142.600143,26.5717694 143.609312,27.2635399 144.863182,27.2635399 C146.14563,27.2635399 147.1005,26.5717694 147.126578,25.5097557 C147.126578,24.4480899 146.171708,23.7288296 144.863182,23.7288296 C143.609312,23.7288296 142.600143,24.4480899 142.600143,25.5097557 L142.600143,25.5097557 Z M148.05537,28.4595233 C147.071922,29.3893073 145.628007,30 144.126935,30 C141.400929,30 139,28.0868441 139,25.5097557 C139,22.6946536 141.400929,20.9941093 144.317337,20.9941093 C145.791974,20.9941093 146.772922,21.5240723 147.454156,22.134765 L147.454156,20.7536599 C147.454156,19.6641563 146.553941,18.8937439 144.863182,18.8937439 C143.854013,18.8937439 142.600143,19.0809534 141.153727,19.8513658 L140.144558,17.3000273 C141.889974,16.4231352 143.391045,16 145.464396,16 C149.144915,16 151,18.0171998 151,21.3389506 L151,29.6276688 L148.218981,29.6276688 L148.05537,28.4595233 Z" id="Fill-17" fill="#000000"></path>
                        <path d="M36.9989713,30 C34.9063229,30 33.2560005,29.0465676 32,27.1091374 L34.1200796,25.3613516 C35.3507064,26.8180713 36.1623234,27.2150743 37.3932931,27.2150743 C38.282403,27.2150743 38.9366342,26.7395738 38.9366342,26.0240653 C38.9366342,25.1209964 38.0999863,24.7239934 35.8228638,24.2203587 C33.6753532,23.7424269 32.3668907,22.5486392 32.3668907,20.1357084 C32.3668907,17.8818567 34.2246605,16 37.2883692,16 C39.435537,16 41.0063091,17.060064 41.8703881,18.2792071 L39.7753395,20.1888506 C39.330956,19.5514923 38.386984,18.8887786 37.1038952,18.8887786 C36.0573995,18.8887786 35.3760801,19.3413551 35.3760801,20.1357084 C35.3760801,20.8262088 35.7954327,21.2489146 37.6281717,21.673357 C40.3496777,22.3107153 42,23.3707793 42,25.8368522 C42,28.3838539 39.8278014,30 36.9989713,30" id="Fill-18" fill="#000000"></path>
                        <path d="M21.6411142,21.4819445 C21.9353422,19.7526025 22.9190036,18.7142999 24.592795,18.7142999 C26.3216017,18.7142999 27.3564484,19.7526025 27.4908531,21.4819445 L21.6411142,21.4819445 Z M31,22.4669024 C31,18.739752 28.6876122,16 24.6206509,16 C20.6574528,16 18,18.7930966 18,23 C18,27.0723216 20.9516807,30 24.8842373,30 C27.7293692,30 29.4835945,28.8295562 30.8659435,26.4328834 L28.1019419,24.9957165 C27.2523369,26.4074314 26.0023035,26.965981 24.8842373,26.965981 C23.023115,26.9935249 21.8542119,25.9276784 21.5624213,24.1983364 L30.8659435,24.1983364 C30.9721441,23.6394382 31,22.9721074 31,22.4669024 L31,22.4669024 Z" id="Fill-19" fill="#000000"></path>
                        <path d="M10.0279853,25.9094851 C8.03293004,25.9094851 6.71099421,24.3638785 6.71099421,21.9924127 C6.71099421,19.6205978 8.03293004,18.0753403 10.0279853,18.0753403 C12.1920568,18.0753403 13.3449763,19.6205978 13.3449763,21.9924127 C13.3449763,24.3638785 12.1920568,25.9094851 10.0279853,25.9094851 L10.0279853,25.9094851 Z M13.3449763,10 L13.3449763,16.3949994 C12.3610731,15.516084 11.0951078,14.9844763 9.60710153,14.9844763 C5.78342977,14.9844763 3,17.9406059 3,21.9924127 C3,26.0693513 5.78342977,29 9.60710153,29 C11.2935823,29 12.6987375,28.25547 13.7393477,27.134661 L14.0206733,28.6544376 L17,28.6544376 L17,10 L13.3449763,10 Z" id="Fill-20" fill="#000000"></path>
                    </g>
                </g>
            </g>
        </g>
    </g>
</svg>