<?xml version="1.0" encoding="UTF-8"?>
<svg width="151px" height="46px" viewBox="0 0 151 46" version="1.1" xmlns="http://www.w3.org/2000/svg" xmlns:xlink="http://www.w3.org/1999/xlink">
    <!-- Generator: Sketch 54.1 (76490) - https://sketchapp.com -->
    <title>04-Desc-Marca-PB-Negativo</title>
    <desc>Created with Sketch.</desc>
    <defs>
        <polygon id="path-1" points="0.0442622951 0.360970237 44.704918 0.360970237 44.704918 45.9995285 0.0442622951 45.9995285"></polygon>
    </defs>
    <g id="Page-1" stroke="none" stroke-width="1" fill="none" fill-rule="evenodd">
        <g id="Mod—HKT-3" transform="translate(-96.000000, -89.000000)">
            <g id="Mod—Hero-2">
                <g id="header">
                    <g id="04-Desc-Marca-PB-Negativo" transform="translate(96.000000, 89.000000)">
                        <g id="Group-3">
                            <mask id="mask-2" fill="white">
                                <use xlink:href="#path-1"></use>
                            </mask>
                            <g id="Clip-2"></g>
                            <path d="M36,24.2047619 C38.2868852,24.7888889 39.1721311,25.1539683 39.1721311,26.0301587 C39.1721311,26.7603175 38.5081967,27.1984127 37.6229508,27.1984127 C36.3688525,27.1984127 35.557377,26.8333333 34.3032787,25.3730159 L32.1639344,27.1253968 C33.4180328,29.0238095 35.1147541,29.9722857 37.2540984,29.9722857 C40.1311475,29.9722857 42.3442623,28.3659365 42.3442623,25.884127 C42.3442623,23.4746032 40.647541,22.452381 37.9180328,21.7952381 C35.9262295,21.3571429 35.6311475,20.9190476 35.6311475,20.1888889 C35.6311475,19.3849841 36.295082,18.947619 37.4016393,18.947619 C38.7295082,18.947619 39.6885246,19.6047619 40.1311475,20.2619048 L42.2704918,18.3634921 C41.3852459,17.1222222 39.8360656,16.0992698 37.6229508,16.0992698 C34.5245902,16.0992698 32.6065574,17.9246667 32.6065574,20.1888889 C32.5327869,22.5984127 33.8606557,23.6936508 36,24.2047619 Z M24.8606557,18.8746032 C26.557377,18.8746032 27.5901639,19.8968254 27.7377049,21.5754603 L21.9098361,21.5754603 C22.204918,19.8968254 23.1639344,18.8746032 24.8606557,18.8746032 Z M31.1311475,26.468254 L28.4016393,25.0802222 C27.5901639,26.468254 26.3360656,27.0516508 25.2295082,27.0516508 C23.3852459,27.0516508 22.204918,26.0301587 21.9098361,24.3500635 L31.204918,24.3500635 C31.2786885,23.7659365 31.352459,23.1095238 31.352459,22.6706984 C31.352459,19.0199048 29.0655738,16.3190476 25.0081967,16.3190476 C21.0245902,16.3190476 18.442623,19.0936508 18.442623,23.1825397 C18.442623,27.1984127 21.3934426,30.0460317 25.3032787,30.0460317 C27.9590164,29.9722857 29.7295082,28.8047619 31.1311475,26.468254 Z M9.44262295,19.2396825 C11.5081967,19.2396825 12.5409836,20.7730159 12.5409836,23.1095238 C12.5409836,25.4453016 11.4344262,26.9793651 9.44262295,26.9793651 C7.59836066,26.9793651 6.3442623,25.4453016 6.3442623,23.1095238 C6.3442623,20.7730159 7.59836066,19.2396825 9.44262295,19.2396825 Z M13.204918,29.6072063 L16.0081967,29.6072063 L16.0081967,11.2809524 L12.5409836,11.2809524 L12.5409836,17.5595873 C11.5819672,16.684127 10.4016393,16.1730159 9,16.1730159 C5.3852459,16.1730159 2.80327869,19.0936508 2.80327869,23.0357778 C2.80327869,27.0516508 5.45901639,29.9 9,29.9 C10.6229508,29.9 11.8770492,29.1698413 12.9098361,28.0746032 L13.204918,29.6072063 Z M44.704918,7.33736508 L44.704918,39.3183175 C44.704918,43.6269841 41.3852459,46.6199048 37.2540984,45.889746 L5.01639344,39.5380952 C2.28688525,39.0269841 0,36.3976825 0,33.1119683 L0,12.8873016 C0,9.67460317 2.28688525,6.97228571 5.01639344,6.46190476 L37.3278689,0.474603175 C41.3852459,-0.255555556 44.704918,2.59133333 44.704918,7.33736508 L44.704918,7.33736508 Z" id="Fill-1" fill="#FFF900" mask="url(#mask-2)"></path>
                        </g>
                        <path d="M52.7954545,31 C48.8068182,31 46,28.0963349 46,24.0003724 C46,19.9044098 48.8068182,17 52.7954545,17 C55.5284091,17 57.6704545,18.0426086 59,20.5739135 L56.1193182,22.0633544 C55.2329545,20.5739135 54.2727273,20.0533539 52.8693182,20.0533539 C50.8011364,20.0533539 49.5454545,21.6172669 49.5454545,24.0003724 C49.5454545,26.3827331 50.8011364,27.9473908 52.8693182,27.9473908 C54.2727273,27.9473908 55.2329545,27.4260865 56.1193182,25.9366456 L59,27.4260865 C57.7443182,29.9581361 55.6022727,31 52.7954545,31" id="Fill-4" fill="#FFF900"></path>
                        <path d="M70.3870968,24.0003724 C70.3870968,21.6909942 69.1075269,20.0533539 66.9247312,20.0533539 C64.8172043,20.0533539 63.4623656,21.6909942 63.4623656,24.0003724 C63.4623656,26.3827331 64.7419355,27.9473908 66.9247312,27.9473908 C69.1075269,27.8721741 70.3870968,26.3090058 70.3870968,24.0003724 Z M74,24.0003724 C74,28.0963349 71.1397849,31 67,31 C62.8602151,31 60,28.0963349 60,24.0003724 C60,19.9044098 62.8602151,17 67,17 C71.1397849,17 74,19.9044098 74,24.0003724 L74,24.0003724 Z" id="Fill-5" fill="#FFF900"></path>
                        <path d="M78.4814815,21.4641081 L78.4814815,31 L75,31 L75,17.3783784 L77.8148148,17.3783784 L78.037037,18.6648649 C79.1481481,17.6054054 80.7037037,17 82.2592593,17 C84.3333333,17 85.4444444,17.7567568 86.037037,18.8918919 C87.2222222,17.6054054 88.8518519,17 90.5555556,17 C94.4814815,17 95,19.8 95,22.5992432 L95,30.9235676 L91.5185185,30.9235676 L91.5185185,22.5243243 C91.5185185,20.6324324 91,20.1027027 89.6666667,20.1027027 C88.5555556,20.1027027 87.4444444,20.6324324 86.6296296,21.4641081 C86.6296296,21.8424865 86.6296296,22.2208649 86.6296296,22.5992432 L86.6296296,30.9235676 L83.1481481,30.9235676 L83.1481481,22.5243243 C83.1481481,20.6324324 82.6296296,20.1027027 81.2962963,20.1027027 C80.4074074,20.1027027 79.2962963,20.7073514 78.4814815,21.4641081" id="Fill-6" fill="#FFF900"></path>
                        <path d="M107.586592,23.9233572 C107.586592,21.591279 106.351955,20.0608527 104.536313,20.0608527 C102.502793,20.0608527 101.486034,21.591279 101.486034,23.9233572 C101.486034,26.2547067 102.575419,27.7858618 104.536313,27.7858618 C106.351955,27.7122556 107.586592,26.2547067 107.586592,23.9233572 Z M101.413408,29.3891656 L101.413408,35 L98,35 L98,17.3643872 L100.759777,17.3643872 L101.050279,18.8219361 C101.994413,17.7287744 103.301676,17 104.899441,17 C108.458101,17 111,19.8414916 111,23.849751 C111,27.8580104 108.385475,30.7009596 104.899441,30.7009596 C103.519553,30.7731082 102.357542,30.2629661 101.413408,29.3891656 L101.413408,29.3891656 Z" id="Fill-7" fill="#FFF900"></path>
                        <path d="M116.938462,28.9288538 C116.692308,28.9288538 116.446154,29 116.138462,29 C114.169231,29 113,27.7898024 113,25.0869565 L113,11 L115.892308,11 L115.892308,24.3754941 C115.892308,25.4426877 116.2,25.798419 117,25.798419 L117,28.9288538 L116.938462,28.9288538" id="Fill-8" fill="#FFF900"></path>
                        <path d="M119.416912,30 L122.655472,30 L122.655472,16.3631198 L119.416912,16.3631198 L119.416912,30 Z M121.00174,10 C122.173134,10 123,10.9848858 123,12.2728134 C123,13.4849805 122.104228,14.4691087 121.00174,14.4691087 C119.899251,14.4691087 119.003479,13.4849805 119.003479,12.2728134 C118.934574,10.9848858 119.899251,10 121.00174,10 L121.00174,10 Z" id="Fill-9" fill="#FFF900"></path>
                        <path d="M132.795455,31 C128.806818,31 126,28.0963349 126,24.0003724 C126,19.9044098 128.806818,17 132.795455,17 C135.528409,17 137.670455,18.0426086 139,20.5739135 L136.119318,22.0633544 C135.232955,20.5739135 134.272727,20.0533539 132.869318,20.0533539 C130.801136,20.0533539 129.545455,21.6172669 129.545455,24.0003724 C129.545455,26.3827331 130.801136,27.9473908 132.869318,27.9473908 C134.272727,27.9473908 135.232955,27.4260865 136.119318,25.9366456 L139,27.4260865 C137.670455,29.9581361 135.528409,31 132.795455,31" id="Fill-10" fill="#FFF900"></path>
                        <path d="M145.5,28.1992632 C146.683544,28.1992632 147.449367,27.5368421 147.518987,26.4315789 C147.518987,25.3992632 146.753165,24.6624211 145.5,24.6624211 C144.316456,24.6624211 143.341772,25.3992632 143.341772,26.4315789 C143.341772,27.5368421 144.316456,28.1992632 145.5,28.1992632 Z M148.35443,29.4518947 C147.449367,30.4097895 146.126582,31 144.734177,31 C142.227848,31 140,29.0834737 140,26.5045263 C140,23.7052632 142.227848,22.0105263 144.873418,22.0105263 C146.196203,22.0105263 147.101266,22.5263158 147.727848,23.1157895 L147.727848,21.7150526 C147.727848,20.6097895 146.753165,19.8729474 145.360759,19.8729474 C144.455696,19.8729474 143.272152,20.0947368 141.949367,20.8315789 L141.044304,18.3263158 C142.64557,17.4421053 144.037975,17 145.917722,17 C149.259494,17 151,18.9894737 151,22.3052632 L151,30.5571579 L148.424051,30.5571579 L148.35443,29.4518947 L148.35443,29.4518947 Z" id="Fill-11" fill="#FFF900"></path>
                    </g>
                </g>
            </g>
        </g>
    </g>
</svg>