<?xml version="1.0" encoding="UTF-8"?>
<svg width="20px" height="17px" viewBox="0 0 20 17" version="1.1" xmlns="http://www.w3.org/2000/svg" xmlns:xlink="http://www.w3.org/1999/xlink">
    <!-- Generator: Sketch 54.1 (76490) - https://sketchapp.com -->
    <title>Shape</title>
    <desc>Created with Sketch.</desc>
    <g id="Page-1" stroke="none" stroke-width="1" fill="none" fill-rule="evenodd">
        <g id="Mod—HKT-3" transform="translate(-1236.000000, -7386.000000)" fill="#FFF900" fill-rule="nonzero">
            <g id="Redes-Sociais" transform="translate(104.000000, 6764.000000)">
                <path d="M1152.00003,623.93541 C1151.26392,624.261587 1150.47408,624.482797 1149.64421,624.581555 C1150.49156,624.074136 1151.14019,623.269298 1151.44761,622.313218 C1150.65277,622.783121 1149.77542,623.124331 1148.84058,623.309298 C1148.09198,622.510702 1147.02718,622.013283 1145.84613,622.013283 C1143.58031,622.013283 1141.74315,623.850443 1141.74315,626.115022 C1141.74315,626.436199 1141.77939,626.749892 1141.84939,627.04986 C1138.44004,626.878618 1135.41687,625.245184 1133.3935,622.763121 C1133.0398,623.368024 1132.83859,624.072862 1132.83859,624.825249 C1132.83859,626.248748 1133.56346,627.504763 1134.66327,628.2396 C1133.99088,628.217117 1133.3585,628.032149 1132.80487,627.724698 L1132.80487,627.77594 C1132.80487,629.763067 1134.21961,631.421501 1136.09549,631.798953 C1135.7518,631.891437 1135.38938,631.942678 1135.01445,631.942678 C1134.74951,631.942678 1134.4933,631.916437 1134.24209,631.866436 C1134.76448,633.497387 1136.27922,634.683402 1138.0739,634.715918 C1136.6704,635.815724 1134.90072,636.469353 1132.97859,636.469353 C1132.64742,636.469353 1132.32121,636.449352 1132.00003,636.413111 C1133.81595,637.579158 1135.9718,638.259029 1138.28886,638.259029 C1145.8362,638.259029 1149.96169,632.007679 1149.96169,626.586199 L1149.94794,626.055054 C1150.75402,625.480119 1151.45137,624.757765 1152.00003,623.93541 Z" id="Shape"></path>
            </g>
        </g>
    </g>
</svg>