<svg xmlns="http://www.w3.org/2000/svg" xmlns:xlink="http://www.w3.org/1999/xlink" width="20" height="16" viewBox="0 0 20 16"><defs><path id="8jsxa" d="M190 6286.893a8.292 8.292 0 0 1-2.356.636 4.07 4.07 0 0 0 1.804-2.234 8.349 8.349 0 0 1-2.607.981 4.12 4.12 0 0 0-2.995-1.276c-2.266 0-4.103 1.81-4.103 4.04 0 .316.036.625.106.92a11.708 11.708 0 0 1-8.456-4.222 3.964 3.964 0 0 0-.554 2.031c0 1.402.724 2.64 1.824 3.363a4.151 4.151 0 0 1-1.858-.507v.05c0 1.958 1.415 3.59 3.29 3.963a4.215 4.215 0 0 1-1.08.141c-.266 0-.522-.026-.773-.075a4.098 4.098 0 0 0 3.832 2.806 8.312 8.312 0 0 1-5.095 1.727 8.85 8.85 0 0 1-.979-.055 11.727 11.727 0 0 0 6.289 1.818c7.547 0 11.673-6.157 11.673-11.496l-.014-.523a8.126 8.126 0 0 0 2.052-2.088z"/></defs><g><g transform="translate(-170 -6285)"><g/><g><g/><g><use fill="#9e9e9e" xlink:href="#8jsxa"/></g></g></g></g></svg>