<?xml version="1.0" encoding="UTF-8"?>
<svg width="23px" height="17px" viewBox="0 0 23 17" version="1.1" xmlns="http://www.w3.org/2000/svg" xmlns:xlink="http://www.w3.org/1999/xlink">
    <!-- Generator: Sketch 54.1 (76490) - https://sketchapp.com -->
    <title>XMLID_823_</title>
    <desc>Created with Sketch.</desc>
    <g id="Page-1" stroke="none" stroke-width="1" fill="none" fill-rule="evenodd">
        <g id="Mod—HKT-3" transform="translate(-1275.000000, -7386.000000)" fill="#FFF900" fill-rule="nonzero">
            <g id="Redes-Sociais" transform="translate(104.000000, 6764.000000)">
                <path d="M1193.10352,623.45202 C1192.27329,622.465097 1190.74045,622.062523 1187.81307,622.062523 L1177.1867,622.062523 C1174.19233,622.062523 1172.63352,622.491065 1171.80641,623.541794 C1171,624.566258 1171,626.075726 1171,628.164868 L1171,632.146761 C1171,636.194094 1171.9568,638.249032 1177.1867,638.249032 L1187.81315,638.249032 C1190.35175,638.249032 1191.75846,637.893794 1192.66852,637.022836 C1193.6018,636.129694 1194,634.67142 1194,632.146761 L1194,628.164868 C1194,625.96169 1193.9376,624.44332 1193.10352,623.45202 Z M1185.76607,630.705552 L1180.94067,633.227465 C1180.8328,633.283852 1180.71483,633.311823 1180.59701,633.311823 C1180.46361,633.311823 1180.33051,633.275913 1180.21261,633.204539 C1179.99063,633.070026 1179.85507,632.829416 1179.85507,632.569887 L1179.85507,627.542236 C1179.85507,627.283152 1179.99025,627.042765 1180.2118,626.908178 C1180.43341,626.77359 1180.70904,626.76439 1180.93897,626.883842 L1185.76437,629.389507 C1186.00987,629.516971 1186.16405,629.770416 1186.16442,630.046936 C1186.16472,630.323678 1186.01121,630.577494 1185.76607,630.705552 Z" id="XMLID_823_"></path>
            </g>
        </g>
    </g>
</svg>